<?xml version="1.0" standalone="no"?>
<!DOCTYPE svg PUBLIC "-//W3C//DTD SVG 20010904//EN"
 "http://www.w3.org/TR/2001/REC-SVG-20010904/DTD/svg10.dtd">
<svg version="1.0" xmlns="http://www.w3.org/2000/svg"
 width="320.000000pt" height="320.000000pt" viewBox="0 0 320.000000 320.000000"
 preserveAspectRatio="xMidYMid meet">
<metadata>
Created by potrace 1.11, written by Peter Selinger 2001-2013
</metadata>
<g transform="translate(0.000000,320.000000) scale(0.100000,-0.100000)"
fill="#000000" stroke="none">
<path d="M1390 3185 c-429 -59 -812 -288 -1080 -645 -82 -110 -186 -313 -229
-447 -215 -666 14 -1381 578 -1802 163 -121 368 -216 576 -267 93 -22 118 -24
370 -24 252 0 277 2 370 24 623 152 1099 658 1210 1286 23 133 20 451 -5 585
-118 611 -581 1102 -1182 1256 -187 47 -417 60 -608 34z m250 -710 l0 -145
258 0 c231 0 261 2 299 19 25 12 48 32 58 50 15 30 16 31 78 25 34 -4 65 -9
69 -13 11 -10 -18 -81 -50 -120 -16 -20 -55 -49 -87 -66 -58 -30 -60 -30 -247
-33 -103 -2 -188 -6 -188 -8 0 -16 67 -99 122 -149 116 -107 277 -163 438
-150 l86 6 13 -62 c9 -45 9 -65 1 -73 -7 -7 -59 -11 -143 -11 -110 0 -144 4
-207 23 -196 62 -355 191 -445 365 -51 97 -55 84 -55 -173 l0 -230 -70 0 -70
0 0 223 0 222 -20 -44 c-76 -166 -245 -314 -432 -377 -110 -38 -116 -36 -124
39 -4 34 -7 64 -6 67 0 2 22 10 48 17 96 24 194 82 269 158 38 39 80 90 93
113 l23 42 -276 0 -275 0 0 70 0 70 350 0 350 0 0 145 0 145 70 0 70 0 0 -145z
m337 -807 c4 -7 15 -38 24 -68 l16 -55 -178 -117 -179 -117 0 -41 0 -40 230 0
c244 0 286 7 320 50 14 18 19 18 78 6 35 -8 65 -16 67 -18 3 -2 -10 -28 -28
-58 -39 -65 -104 -104 -197 -119 -36 -6 -157 -11 -269 -11 l-204 0 4 -227 4
-227 -34 -23 c-63 -43 -160 -25 -275 52 -32 21 -60 44 -63 51 -3 8 13 36 36
63 l41 49 66 -44 c36 -24 70 -44 75 -44 5 0 9 75 9 175 l0 175 -270 0 -270 0
0 75 0 75 270 0 270 0 0 83 1 82 104 65 c58 35 105 68 105 72 0 5 -135 8 -299
8 -199 0 -302 4 -306 11 -4 5 -4 37 0 70 l7 59 418 0 c324 0 421 -3 427 -12z"/>
</g>
</svg>
